<svg width="239" height="56" viewBox="0 0 239 56" fill="none" xmlns="http://www.w3.org/2000/svg">
<g filter="url(#filter0_b_12_732)">
<rect y="8" width="239" height="48" rx="4" fill="white" fill-opacity="0.4"/>
</g>
<g filter="url(#filter1_b_12_732)">
<path d="M25 -3.49691e-07L33 8L17 8L25 -3.49691e-07Z" fill="white" fill-opacity="0.4"/>
</g>
<path d="M24.6562 35.0234V37H18.6328H16.9766V25.625H19.4297H24.6484V27.6094H19.4297V30.1953H23.875V32.1094H19.4297V35.0234H24.6562ZM35.2969 28.3906C36.1562 28.3906 36.8203 28.6458 37.2891 29.1562C37.7578 29.6667 37.9922 30.4948 37.9922 31.6406V37H35.6328V31.6328C35.6328 31.2786 35.5859 31.0052 35.4922 30.8125C35.3984 30.6146 35.263 30.4792 35.0859 30.4062C34.9141 30.3333 34.6953 30.2969 34.4297 30.2969C34.112 30.2969 33.8411 30.375 33.6172 30.5312C33.3932 30.6823 33.2161 30.8984 33.0859 31.1797C33.0911 31.2161 33.0938 31.276 33.0938 31.3594V37H30.7344V31.6562C30.7344 31.3021 30.6875 31.026 30.5938 30.8281C30.5 30.6302 30.3646 30.4922 30.1875 30.4141C30.0156 30.3359 29.7943 30.2969 29.5234 30.2969C29.2214 30.2969 28.9583 30.3646 28.7344 30.5C28.5156 30.6302 28.3385 30.8177 28.2031 31.0625V37H25.8438V28.5469H28.0547L28.1328 29.4922C28.4141 29.138 28.7578 28.8672 29.1641 28.6797C29.5755 28.487 30.0391 28.3906 30.5547 28.3906C31.0755 28.3906 31.5234 28.4974 31.8984 28.7109C32.2786 28.9193 32.5703 29.2396 32.7734 29.6719C33.0547 29.2604 33.4062 28.9453 33.8281 28.7266C34.2552 28.5026 34.7448 28.3906 35.2969 28.3906ZM46.5703 34.9141C46.5703 35.3932 46.599 35.7812 46.6562 36.0781C46.7135 36.375 46.7995 36.638 46.9141 36.8672V37H44.5469C44.4427 36.7969 44.3672 36.5443 44.3203 36.2422C43.7839 36.8516 43.0781 37.1562 42.2031 37.1562C41.6719 37.1562 41.1875 37.0469 40.75 36.8281C40.3125 36.6094 39.9661 36.3073 39.7109 35.9219C39.4609 35.5365 39.3359 35.1016 39.3359 34.6172C39.3359 33.7266 39.6667 33.0417 40.3281 32.5625C40.9896 32.0781 41.9635 31.8359 43.25 31.8359H44.2109V31.3594C44.2109 30.9688 44.112 30.6667 43.9141 30.4531C43.7161 30.2344 43.4193 30.125 43.0234 30.125C42.6641 30.125 42.3828 30.2109 42.1797 30.3828C41.9818 30.5495 41.8828 30.7891 41.8828 31.1016H39.5234C39.5234 30.5964 39.6719 30.138 39.9688 29.7266C40.2708 29.3151 40.6953 28.9896 41.2422 28.75C41.7943 28.5104 42.4297 28.3906 43.1484 28.3906C43.8151 28.3906 44.4062 28.5026 44.9219 28.7266C45.4375 28.9505 45.8411 29.2865 46.1328 29.7344C46.4245 30.1823 46.5703 30.7292 46.5703 31.375V34.9141ZM42.7344 35.3672C43.0781 35.3672 43.3802 35.2943 43.6406 35.1484C43.901 34.9974 44.0911 34.8151 44.2109 34.6016V33.1875H43.3125C42.7656 33.1875 42.3568 33.3073 42.0859 33.5469C41.8203 33.7812 41.6875 34.0885 41.6875 34.4688C41.6875 34.7344 41.7812 34.9505 41.9688 35.1172C42.1615 35.2839 42.4167 35.3672 42.7344 35.3672ZM49.5391 25.1484C49.9349 25.1484 50.2526 25.263 50.4922 25.4922C50.737 25.7161 50.8594 26.0052 50.8594 26.3594C50.8594 26.7135 50.737 27.0052 50.4922 27.2344C50.2526 27.4583 49.9349 27.5703 49.5391 27.5703C49.1484 27.5703 48.8307 27.4583 48.5859 27.2344C48.3464 27.0052 48.2266 26.7135 48.2266 26.3594C48.2266 26.0052 48.3464 25.7161 48.5859 25.4922C48.8307 25.263 49.1484 25.1484 49.5391 25.1484ZM48.3672 37V28.5469H50.7344V37H48.3672ZM52.6641 37V25H55.0312V37H52.6641ZM68.2656 33.5391H62.9219C63.0104 34.0651 63.2292 34.4844 63.5781 34.7969C63.9271 35.1042 64.375 35.2578 64.9219 35.2578C65.3281 35.2578 65.7031 35.1823 66.0469 35.0312C66.3958 34.875 66.6927 34.6432 66.9375 34.3359L68.0703 35.6406C67.7734 36.0677 67.3385 36.4271 66.7656 36.7188C66.1979 37.0104 65.5312 37.1562 64.7656 37.1562C63.901 37.1562 63.1484 36.974 62.5078 36.6094C61.8724 36.2448 61.3828 35.75 61.0391 35.125C60.7005 34.5 60.5312 33.8099 60.5312 33.0547V32.7578C60.5312 31.9141 60.6901 31.1615 61.0078 30.5C61.3255 29.8385 61.7839 29.3229 62.3828 28.9531C62.9818 28.5781 63.6901 28.3906 64.5078 28.3906C65.3047 28.3906 65.9844 28.5599 66.5469 28.8984C67.1094 29.237 67.5365 29.7188 67.8281 30.3438C68.1198 30.9635 68.2656 31.6953 68.2656 32.5391V33.5391ZM65.9531 31.7734C65.9427 31.3151 65.8151 30.9531 65.5703 30.6875C65.3307 30.4219 64.9714 30.2891 64.4922 30.2891C64.0443 30.2891 63.6927 30.4375 63.4375 30.7344C63.1875 31.0312 63.0234 31.4401 62.9453 31.9609H65.9531V31.7734ZM68.5234 37.9766L72.6328 25.625H74.3672L70.25 37.9766H68.5234ZM75.0391 32.6953C75.0391 31.8672 75.1953 31.1276 75.5078 30.4766C75.8255 29.8255 76.2865 29.3151 76.8906 28.9453C77.4948 28.5755 78.2161 28.3906 79.0547 28.3906C79.8984 28.3906 80.6224 28.5755 81.2266 28.9453C81.8359 29.3151 82.2969 29.8255 82.6094 30.4766C82.9271 31.1276 83.0859 31.8672 83.0859 32.6953V32.8594C83.0859 33.6875 82.9271 34.4271 82.6094 35.0781C82.2969 35.724 81.8385 36.2318 81.2344 36.6016C80.6302 36.9714 79.9089 37.1562 79.0703 37.1562C78.2266 37.1562 77.5 36.9714 76.8906 36.6016C76.2865 36.2318 75.8255 35.724 75.5078 35.0781C75.1953 34.4271 75.0391 33.6875 75.0391 32.8594V32.6953ZM77.3984 32.8594C77.3984 33.5885 77.5312 34.1719 77.7969 34.6094C78.0625 35.0417 78.487 35.2578 79.0703 35.2578C79.6432 35.2578 80.0625 35.0391 80.3281 34.6016C80.5938 34.1641 80.7266 33.5833 80.7266 32.8594V32.6953C80.7266 31.9766 80.5938 31.3958 80.3281 30.9531C80.0625 30.5104 79.638 30.2891 79.0547 30.2891C78.4818 30.2891 78.0625 30.513 77.7969 30.9609C77.5312 31.4036 77.3984 31.9818 77.3984 32.6953V32.8594ZM91.75 28.5469V37H89.5391L89.4766 36.1172C89.2109 36.4505 88.8854 36.7083 88.5 36.8906C88.1146 37.0677 87.6745 37.1562 87.1797 37.1562C86.2995 37.1562 85.6094 36.901 85.1094 36.3906C84.6146 35.8802 84.3672 35.0885 84.3672 34.0156V28.5469H86.7188V34.0312C86.7188 34.4479 86.8203 34.7552 87.0234 34.9531C87.2318 35.151 87.5182 35.25 87.8828 35.25C88.6068 35.25 89.1094 34.9974 89.3906 34.4922V28.5469H91.75ZM100.211 33.6172C98.2109 33.1901 97.2109 32.3281 97.2109 31.0312C97.2109 30.5521 97.3464 30.112 97.6172 29.7109C97.8932 29.3099 98.2891 28.9896 98.8047 28.75C99.3203 28.5104 99.9219 28.3906 100.609 28.3906C101.333 28.3906 101.966 28.5078 102.508 28.7422C103.049 28.9714 103.466 29.2943 103.758 29.7109C104.049 30.1224 104.195 30.5938 104.195 31.125H101.836C101.836 30.7865 101.734 30.5234 101.531 30.3359C101.328 30.1432 101.018 30.0469 100.602 30.0469C100.258 30.0469 99.9818 30.1276 99.7734 30.2891C99.5703 30.4505 99.4688 30.6589 99.4688 30.9141C99.4688 31.1589 99.5833 31.3568 99.8125 31.5078C100.047 31.6589 100.443 31.7865 101 31.8906C101.667 32.0156 102.232 32.1797 102.695 32.3828C103.159 32.5807 103.526 32.8568 103.797 33.2109C104.073 33.5651 104.211 34.0156 104.211 34.5625C104.211 35.0573 104.062 35.5026 103.766 35.8984C103.474 36.2891 103.055 36.5964 102.508 36.8203C101.966 37.0443 101.336 37.1562 100.617 37.1562C99.8568 37.1562 99.1979 37.0182 98.6406 36.7422C98.0885 36.4609 97.6667 36.1016 97.375 35.6641C97.0885 35.2266 96.9453 34.7708 96.9453 34.2969H99.1719C99.1875 34.7031 99.3333 35.0052 99.6094 35.2031C99.8854 35.3958 100.24 35.4922 100.672 35.4922C101.073 35.4922 101.38 35.4167 101.594 35.2656C101.812 35.1094 101.922 34.901 101.922 34.6406C101.922 34.4792 101.872 34.3438 101.773 34.2344C101.68 34.1198 101.508 34.013 101.258 33.9141C101.013 33.8151 100.664 33.7161 100.211 33.6172ZM113.062 33.5391H107.719C107.807 34.0651 108.026 34.4844 108.375 34.7969C108.724 35.1042 109.172 35.2578 109.719 35.2578C110.125 35.2578 110.5 35.1823 110.844 35.0312C111.193 34.875 111.49 34.6432 111.734 34.3359L112.867 35.6406C112.57 36.0677 112.135 36.4271 111.562 36.7188C110.995 37.0104 110.328 37.1562 109.562 37.1562C108.698 37.1562 107.945 36.974 107.305 36.6094C106.669 36.2448 106.18 35.75 105.836 35.125C105.497 34.5 105.328 33.8099 105.328 33.0547V32.7578C105.328 31.9141 105.487 31.1615 105.805 30.5C106.122 29.8385 106.581 29.3229 107.18 28.9531C107.779 28.5781 108.487 28.3906 109.305 28.3906C110.102 28.3906 110.781 28.5599 111.344 28.8984C111.906 29.237 112.333 29.7188 112.625 30.3438C112.917 30.9635 113.062 31.6953 113.062 32.5391V33.5391ZM110.75 31.7734C110.74 31.3151 110.612 30.9531 110.367 30.6875C110.128 30.4219 109.768 30.2891 109.289 30.2891C108.841 30.2891 108.49 30.4375 108.234 30.7344C107.984 31.0312 107.82 31.4401 107.742 31.9609H110.75V31.7734ZM118.961 28.3906C119.81 28.3906 120.466 28.6458 120.93 29.1562C121.393 29.6615 121.625 30.4896 121.625 31.6406V37H119.266V31.6328C119.266 31.1328 119.159 30.7865 118.945 30.5938C118.732 30.3958 118.401 30.2969 117.953 30.2969C117.646 30.2969 117.378 30.362 117.148 30.4922C116.924 30.6224 116.742 30.8073 116.602 31.0469V37H114.242V28.5469H116.453L116.531 29.5234C116.828 29.1536 117.182 28.8724 117.594 28.6797C118.005 28.487 118.461 28.3906 118.961 28.3906ZM127.805 28.3906C128.69 28.3906 129.378 28.6536 129.867 29.1797C130.362 29.7057 130.609 30.5469 130.609 31.7031V37H128.25V31.6875C128.25 31.1771 128.141 30.8177 127.922 30.6094C127.708 30.401 127.38 30.2969 126.938 30.2969C126.307 30.2969 125.854 30.526 125.578 30.9844V37H123.219V25H125.578V29.4531C125.859 29.1094 126.188 28.8464 126.562 28.6641C126.943 28.4818 127.357 28.3906 127.805 28.3906ZM139.148 34.9141C139.148 35.3932 139.177 35.7812 139.234 36.0781C139.292 36.375 139.378 36.638 139.492 36.8672V37H137.125C137.021 36.7969 136.945 36.5443 136.898 36.2422C136.362 36.8516 135.656 37.1562 134.781 37.1562C134.25 37.1562 133.766 37.0469 133.328 36.8281C132.891 36.6094 132.544 36.3073 132.289 35.9219C132.039 35.5365 131.914 35.1016 131.914 34.6172C131.914 33.7266 132.245 33.0417 132.906 32.5625C133.568 32.0781 134.542 31.8359 135.828 31.8359H136.789V31.3594C136.789 30.9688 136.69 30.6667 136.492 30.4531C136.294 30.2344 135.997 30.125 135.602 30.125C135.242 30.125 134.961 30.2109 134.758 30.3828C134.56 30.5495 134.461 30.7891 134.461 31.1016H132.102C132.102 30.5964 132.25 30.138 132.547 29.7266C132.849 29.3151 133.273 28.9896 133.82 28.75C134.372 28.5104 135.008 28.3906 135.727 28.3906C136.393 28.3906 136.984 28.5026 137.5 28.7266C138.016 28.9505 138.419 29.2865 138.711 29.7344C139.003 30.1823 139.148 30.7292 139.148 31.375V34.9141ZM135.312 35.3672C135.656 35.3672 135.958 35.2943 136.219 35.1484C136.479 34.9974 136.669 34.8151 136.789 34.6016V33.1875H135.891C135.344 33.1875 134.935 33.3073 134.664 33.5469C134.398 33.7812 134.266 34.0885 134.266 34.4688C134.266 34.7344 134.359 34.9505 134.547 35.1172C134.74 35.2839 134.995 35.3672 135.312 35.3672ZM146.102 25.1484C146.497 25.1484 146.815 25.263 147.055 25.4922C147.299 25.7161 147.422 26.0052 147.422 26.3594C147.422 26.7135 147.299 27.0052 147.055 27.2344C146.815 27.4583 146.497 27.5703 146.102 27.5703C145.711 27.5703 145.393 27.4583 145.148 27.2344C144.909 27.0052 144.789 26.7135 144.789 26.3594C144.789 26.0052 144.909 25.7161 145.148 25.4922C145.393 25.263 145.711 25.1484 146.102 25.1484ZM144.93 37V28.5469H147.297V37H144.93ZM153.773 28.3906C154.622 28.3906 155.279 28.6458 155.742 29.1562C156.206 29.6615 156.438 30.4896 156.438 31.6406V37H154.078V31.6328C154.078 31.1328 153.971 30.7865 153.758 30.5938C153.544 30.3958 153.214 30.2969 152.766 30.2969C152.458 30.2969 152.19 30.362 151.961 30.4922C151.737 30.6224 151.555 30.8073 151.414 31.0469V37H149.055V28.5469H151.266L151.344 29.5234C151.641 29.1536 151.995 28.8724 152.406 28.6797C152.818 28.487 153.273 28.3906 153.773 28.3906ZM165.18 34.0391C165.18 34.638 165.023 35.1745 164.711 35.6484C164.398 36.1224 163.974 36.4922 163.438 36.7578C162.906 37.0234 162.315 37.1562 161.664 37.1562C160.815 37.1562 160.096 36.9714 159.508 36.6016C158.919 36.2318 158.477 35.724 158.18 35.0781C157.888 34.4323 157.742 33.6979 157.742 32.875V32.6719C157.742 31.849 157.888 31.1146 158.18 30.4688C158.477 29.8229 158.917 29.3151 159.5 28.9453C160.089 28.5755 160.805 28.3906 161.648 28.3906C162.341 28.3906 162.953 28.526 163.484 28.7969C164.021 29.0625 164.438 29.4479 164.734 29.9531C165.031 30.4531 165.18 31.0443 165.18 31.7266H162.969C162.964 31.3099 162.841 30.9661 162.602 30.6953C162.362 30.4245 162.029 30.2891 161.602 30.2891C161.029 30.2891 160.635 30.5052 160.422 30.9375C160.208 31.3646 160.102 31.9427 160.102 32.6719V32.875C160.102 33.6198 160.206 34.2031 160.414 34.625C160.628 35.0469 161.029 35.2578 161.617 35.2578C162.023 35.2578 162.349 35.1484 162.594 34.9297C162.839 34.7109 162.964 34.4141 162.969 34.0391H165.18ZM166.086 32.6953C166.086 31.8672 166.242 31.1276 166.555 30.4766C166.872 29.8255 167.333 29.3151 167.938 28.9453C168.542 28.5755 169.263 28.3906 170.102 28.3906C170.945 28.3906 171.669 28.5755 172.273 28.9453C172.883 29.3151 173.344 29.8255 173.656 30.4766C173.974 31.1276 174.133 31.8672 174.133 32.6953V32.8594C174.133 33.6875 173.974 34.4271 173.656 35.0781C173.344 35.724 172.885 36.2318 172.281 36.6016C171.677 36.9714 170.956 37.1562 170.117 37.1562C169.273 37.1562 168.547 36.9714 167.938 36.6016C167.333 36.2318 166.872 35.724 166.555 35.0781C166.242 34.4271 166.086 33.6875 166.086 32.8594V32.6953ZM168.445 32.8594C168.445 33.5885 168.578 34.1719 168.844 34.6094C169.109 35.0417 169.534 35.2578 170.117 35.2578C170.69 35.2578 171.109 35.0391 171.375 34.6016C171.641 34.1641 171.773 33.5833 171.773 32.8594V32.6953C171.773 31.9766 171.641 31.3958 171.375 30.9531C171.109 30.5104 170.685 30.2891 170.102 30.2891C169.529 30.2891 169.109 30.513 168.844 30.9609C168.578 31.4036 168.445 31.9818 168.445 32.6953V32.8594ZM179.633 28.3906C179.753 28.3906 179.88 28.401 180.016 28.4219C180.151 28.4375 180.26 28.4583 180.344 28.4844L180.312 30.7656C180.01 30.724 179.732 30.7031 179.477 30.7031C178.633 30.7031 178.083 30.9818 177.828 31.5391V37H175.469V28.5469H177.688L177.758 29.5703C177.966 29.1901 178.229 28.8984 178.547 28.6953C178.87 28.4922 179.232 28.3906 179.633 28.3906ZM185.539 28.3906C185.659 28.3906 185.786 28.401 185.922 28.4219C186.057 28.4375 186.167 28.4583 186.25 28.4844L186.219 30.7656C185.917 30.724 185.638 30.7031 185.383 30.7031C184.539 30.7031 183.99 30.9818 183.734 31.5391V37H181.375V28.5469H183.594L183.664 29.5703C183.872 29.1901 184.135 28.8984 184.453 28.6953C184.776 28.4922 185.138 28.3906 185.539 28.3906ZM194.719 33.5391H189.375C189.464 34.0651 189.682 34.4844 190.031 34.7969C190.38 35.1042 190.828 35.2578 191.375 35.2578C191.781 35.2578 192.156 35.1823 192.5 35.0312C192.849 34.875 193.146 34.6432 193.391 34.3359L194.523 35.6406C194.227 36.0677 193.792 36.4271 193.219 36.7188C192.651 37.0104 191.984 37.1562 191.219 37.1562C190.354 37.1562 189.602 36.974 188.961 36.6094C188.326 36.2448 187.836 35.75 187.492 35.125C187.154 34.5 186.984 33.8099 186.984 33.0547V32.7578C186.984 31.9141 187.143 31.1615 187.461 30.5C187.779 29.8385 188.237 29.3229 188.836 28.9531C189.435 28.5781 190.143 28.3906 190.961 28.3906C191.758 28.3906 192.438 28.5599 193 28.8984C193.562 29.237 193.99 29.7188 194.281 30.3438C194.573 30.9635 194.719 31.6953 194.719 32.5391V33.5391ZM192.406 31.7734C192.396 31.3151 192.268 30.9531 192.023 30.6875C191.784 30.4219 191.424 30.2891 190.945 30.2891C190.497 30.2891 190.146 30.4375 189.891 30.7344C189.641 31.0312 189.477 31.4401 189.398 31.9609H192.406V31.7734ZM199.609 35.2188C199.865 35.2188 200.083 35.2005 200.266 35.1641V36.9375C199.859 37.0833 199.396 37.1562 198.875 37.1562C197.219 37.1562 196.391 36.3125 196.391 34.625V30.2656H195.195V28.5469H196.391V26.4531H198.75V28.5469H200.172V30.2656H198.75V34.3516C198.75 34.6849 198.815 34.9141 198.945 35.0391C199.076 35.1589 199.297 35.2188 199.609 35.2188ZM200.867 32.6953C200.867 31.8672 201.023 31.1276 201.336 30.4766C201.654 29.8255 202.115 29.3151 202.719 28.9453C203.323 28.5755 204.044 28.3906 204.883 28.3906C205.727 28.3906 206.451 28.5755 207.055 28.9453C207.664 29.3151 208.125 29.8255 208.438 30.4766C208.755 31.1276 208.914 31.8672 208.914 32.6953V32.8594C208.914 33.6875 208.755 34.4271 208.438 35.0781C208.125 35.724 207.667 36.2318 207.062 36.6016C206.458 36.9714 205.737 37.1562 204.898 37.1562C204.055 37.1562 203.328 36.9714 202.719 36.6016C202.115 36.2318 201.654 35.724 201.336 35.0781C201.023 34.4271 200.867 33.6875 200.867 32.8594V32.6953ZM203.227 32.8594C203.227 33.5885 203.359 34.1719 203.625 34.6094C203.891 35.0417 204.315 35.2578 204.898 35.2578C205.471 35.2578 205.891 35.0391 206.156 34.6016C206.422 34.1641 206.555 33.5833 206.555 32.8594V32.6953C206.555 31.9766 206.422 31.3958 206.156 30.9531C205.891 30.5104 205.466 30.2891 204.883 30.2891C204.31 30.2891 203.891 30.513 203.625 30.9609C203.359 31.4036 203.227 31.9818 203.227 32.6953V32.8594ZM213.07 33.6172C211.07 33.1901 210.07 32.3281 210.07 31.0312C210.07 30.5521 210.206 30.112 210.477 29.7109C210.753 29.3099 211.148 28.9896 211.664 28.75C212.18 28.5104 212.781 28.3906 213.469 28.3906C214.193 28.3906 214.826 28.5078 215.367 28.7422C215.909 28.9714 216.326 29.2943 216.617 29.7109C216.909 30.1224 217.055 30.5938 217.055 31.125H214.695C214.695 30.7865 214.594 30.5234 214.391 30.3359C214.188 30.1432 213.878 30.0469 213.461 30.0469C213.117 30.0469 212.841 30.1276 212.633 30.2891C212.43 30.4505 212.328 30.6589 212.328 30.9141C212.328 31.1589 212.443 31.3568 212.672 31.5078C212.906 31.6589 213.302 31.7865 213.859 31.8906C214.526 32.0156 215.091 32.1797 215.555 32.3828C216.018 32.5807 216.385 32.8568 216.656 33.2109C216.932 33.5651 217.07 34.0156 217.07 34.5625C217.07 35.0573 216.922 35.5026 216.625 35.8984C216.333 36.2891 215.914 36.5964 215.367 36.8203C214.826 37.0443 214.195 37.1562 213.477 37.1562C212.716 37.1562 212.057 37.0182 211.5 36.7422C210.948 36.4609 210.526 36.1016 210.234 35.6641C209.948 35.2266 209.805 34.7708 209.805 34.2969H212.031C212.047 34.7031 212.193 35.0052 212.469 35.2031C212.745 35.3958 213.099 35.4922 213.531 35.4922C213.932 35.4922 214.24 35.4167 214.453 35.2656C214.672 35.1094 214.781 34.901 214.781 34.6406C214.781 34.4792 214.732 34.3438 214.633 34.2344C214.539 34.1198 214.367 34.013 214.117 33.9141C213.872 33.8151 213.523 33.7161 213.07 33.6172ZM219.93 34.5859C220.19 34.5859 220.422 34.6406 220.625 34.75C220.828 34.8594 220.984 35.0104 221.094 35.2031C221.203 35.3906 221.258 35.6016 221.258 35.8359C221.258 36.0703 221.203 36.2839 221.094 36.4766C220.984 36.6641 220.828 36.8125 220.625 36.9219C220.422 37.0312 220.19 37.0859 219.93 37.0859C219.669 37.0859 219.438 37.0312 219.234 36.9219C219.036 36.8125 218.883 36.6641 218.773 36.4766C218.664 36.2839 218.609 36.0703 218.609 35.8359C218.609 35.6016 218.664 35.3906 218.773 35.2031C218.883 35.0104 219.036 34.8594 219.234 34.75C219.438 34.6406 219.669 34.5859 219.93 34.5859Z" fill="white"/>
<defs>
<filter id="filter0_b_12_732" x="-2" y="6" width="243" height="52" filterUnits="userSpaceOnUse" color-interpolation-filters="sRGB">
<feFlood flood-opacity="0" result="BackgroundImageFix"/>
<feGaussianBlur in="BackgroundImage" stdDeviation="1"/>
<feComposite in2="SourceAlpha" operator="in" result="effect1_backgroundBlur_12_732"/>
<feBlend mode="normal" in="SourceGraphic" in2="effect1_backgroundBlur_12_732" result="shape"/>
</filter>
<filter id="filter1_b_12_732" x="15" y="-2" width="20" height="12" filterUnits="userSpaceOnUse" color-interpolation-filters="sRGB">
<feFlood flood-opacity="0" result="BackgroundImageFix"/>
<feGaussianBlur in="BackgroundImage" stdDeviation="1"/>
<feComposite in2="SourceAlpha" operator="in" result="effect1_backgroundBlur_12_732"/>
<feBlend mode="normal" in="SourceGraphic" in2="effect1_backgroundBlur_12_732" result="shape"/>
</filter>
</defs>
</svg>
